<svg width="12" height="12" viewBox="0 0 12 12" fill="none" xmlns="http://www.w3.org/2000/svg">
<path d="M1.1754 6.98947L0.445224 7.16075L1.1754 6.98947ZM1.1754 3.95778L1.90559 4.12905L1.1754 3.95778ZM9.77185 3.95778L9.04166 4.12906L9.77185 3.95778ZM9.77185 6.98947L9.04167 6.81819L9.77185 6.98947ZM6.98947 9.77185L6.81819 9.04167L6.98947 9.77185ZM3.95778 9.77185L3.7865 10.502L3.95778 9.77185ZM3.95778 1.1754L3.7865 0.445223L3.95778 1.1754ZM6.98947 1.1754L7.16075 0.445223L6.98947 1.1754ZM10.4697 11.5303C10.7626 11.8232 11.2374 11.8232 11.5303 11.5303C11.8232 11.2374 11.8232 10.7626 11.5303 10.4697L10.4697 11.5303ZM1.90559 6.8182C1.69814 5.93382 1.69814 5.01343 1.90559 4.12905L0.445224 3.7865C0.184925 4.89619 0.184925 6.05106 0.445224 7.16075L1.90559 6.8182ZM9.04166 4.12906C9.24911 5.01343 9.24911 5.93382 9.04167 6.81819L10.502 7.16075C10.7623 6.05106 10.7623 4.89619 10.502 3.7865L9.04166 4.12906ZM6.81819 9.04167C5.93382 9.24911 5.01343 9.24911 4.12906 9.04166L3.7865 10.502C4.89619 10.7623 6.05106 10.7623 7.16075 10.502L6.81819 9.04167ZM4.12906 1.90559C5.01343 1.69814 5.93382 1.69814 6.8182 1.90558L7.16075 0.445223C6.05106 0.184925 4.89619 0.184926 3.7865 0.445223L4.12906 1.90559ZM4.12906 9.04166C3.0258 8.78288 2.16437 7.92145 1.90559 6.8182L0.445224 7.16075C0.834113 8.81864 2.12861 10.1131 3.7865 10.502L4.12906 9.04166ZM7.16075 10.502C8.81864 10.1131 10.1131 8.81864 10.502 7.16075L9.04167 6.81819C8.78288 7.92145 7.92145 8.78288 6.81819 9.04167L7.16075 10.502ZM6.8182 1.90558C7.92145 2.16437 8.78288 3.0258 9.04166 4.12906L10.502 3.7865C10.1131 2.12861 8.81864 0.834112 7.16075 0.445223L6.8182 1.90558ZM3.7865 0.445223C2.12861 0.834112 0.834113 2.12861 0.445224 3.7865L1.90559 4.12905C2.16437 3.0258 3.0258 2.16437 4.12906 1.90559L3.7865 0.445223ZM8.43364 9.4943L10.4697 11.5303L11.5303 10.4697L9.4943 8.43364L8.43364 9.4943Z" fill="#302F3C" fill-opacity="0.4"/>
</svg>
